{"url": "https://api.github.com/repos/tensorflow/tensorflow/issues/comments/400739929", "html_url": "https://github.com/tensorflow/tensorflow/issues/20348#issuecomment-400739929", "issue_url": "https://api.github.com/repos/tensorflow/tensorflow/issues/20348", "id": 400739929, "node_id": "MDEyOklzc3VlQ29tbWVudDQwMDczOTkyOQ==", "user": {"login": "rongou", "id": 497101, "node_id": "MDQ6VXNlcjQ5NzEwMQ==", "avatar_url": "https://avatars3.githubusercontent.com/u/497101?v=4", "gravatar_id": "", "url": "https://api.github.com/users/rongou", "html_url": "https://github.com/rongou", "followers_url": "https://api.github.com/users/rongou/followers", "following_url": "https://api.github.com/users/rongou/following{/other_user}", "gists_url": "https://api.github.com/users/rongou/gists{/gist_id}", "starred_url": "https://api.github.com/users/rongou/starred{/owner}{/repo}", "subscriptions_url": "https://api.github.com/users/rongou/subscriptions", "organizations_url": "https://api.github.com/users/rongou/orgs", "repos_url": "https://api.github.com/users/rongou/repos", "events_url": "https://api.github.com/users/rongou/events{/privacy}", "received_events_url": "https://api.github.com/users/rongou/received_events", "type": "User", "site_admin": false}, "created_at": "2018-06-27T16:24:04Z", "updated_at": "2018-06-27T16:24:04Z", "author_association": "NONE", "body_html": "<p>Here is the err file:</p>\n<div class=\"highlight highlight-source-shell\"><pre>Input <span class=\"pl-c\"><span class=\"pl-c\">#</span>0, mov,mp4,m4a,3gp,3g2,mj2, from '/tmp/tmp_file_tensorflow_1_RNEIEt':</span>\n  Metadata:\n    major_brand     <span class=\"pl-c1\">:</span> qt  \n    minor_version   <span class=\"pl-c1\">:</span> 512\n    compatible_brands: qt  \n    encoder         <span class=\"pl-c1\">:</span> Lavf57.71.100\n  Duration: 00:00:40.06, start: 0.000000, bitrate: 4036 kb/s\n    Stream <span class=\"pl-c\"><span class=\"pl-c\">#</span>0:0(eng): Video: h264 (High) (avc1 / 0x31637661), yuv420p(tv, smpte170m/bt709/bt709), 720x1280, 4034 kb/s, 30.16 fps, 59.94 tbr, 19200 tbn, 38400 tbc (default)</span>\n    Metadata:\n      rotate          <span class=\"pl-c1\">:</span> 90\n      handler_name    <span class=\"pl-c1\">:</span> DataHandler\n      encoder         <span class=\"pl-c1\">:</span> H.264\n    Side data:\n      displaymatrix: rotation of -90.00 degrees\nStream mapping:\n  Stream <span class=\"pl-c\"><span class=\"pl-c\">#</span>0:0 -&gt; #0:0 (h264 (native) -&gt; rawvideo (native))</span>\nOutput <span class=\"pl-c\"><span class=\"pl-c\">#</span>0, image2pipe, to '/tmp/tmp_file_tensorflow_2_q9AqGY.raw':</span>\n  Metadata:\n    major_brand     <span class=\"pl-c1\">:</span> qt  \n    minor_version   <span class=\"pl-c1\">:</span> 512\n    compatible_brands: qt  \n    encoder         <span class=\"pl-c1\">:</span> Lavf57.83.100\n    Stream <span class=\"pl-c\"><span class=\"pl-c\">#</span>0:0(eng): Video: rawvideo (RGB[24] / 0x18424752), rgb24, 1280x720, q=2-31, 1325778 kb/s, 59.94 fps, 59.94 tbn, 59.94 tbc (default)</span>\n    Metadata:\n      encoder         <span class=\"pl-c1\">:</span> Lavc57.107.100 rawvideo\n      handler_name    <span class=\"pl-c1\">:</span> DataHandler\n    Side data:\n      displaymatrix: rotation of -0.00 degrees\nMore than 1000 frames duplicated 5370300kB time=00:00:33.18 bitrate=1325778.2kbits/s dup=992 drop=5 speed=6.61x    \nframe= 2401 fps=352 q=-0.0 Lsize= 6482700kB time=00:00:40.05 bitrate=1325778.2kbits/s dup=1198 drop=5 speed=5.88x    \nvideo:6482700kB audio:0kB subtitle:0kB other streams:0kB global headers:0kB muxing overhead: 0.000000%</pre></div>", "body_text": "Here is the err file:\nInput #0, mov,mp4,m4a,3gp,3g2,mj2, from '/tmp/tmp_file_tensorflow_1_RNEIEt':\n  Metadata:\n    major_brand     : qt  \n    minor_version   : 512\n    compatible_brands: qt  \n    encoder         : Lavf57.71.100\n  Duration: 00:00:40.06, start: 0.000000, bitrate: 4036 kb/s\n    Stream #0:0(eng): Video: h264 (High) (avc1 / 0x31637661), yuv420p(tv, smpte170m/bt709/bt709), 720x1280, 4034 kb/s, 30.16 fps, 59.94 tbr, 19200 tbn, 38400 tbc (default)\n    Metadata:\n      rotate          : 90\n      handler_name    : DataHandler\n      encoder         : H.264\n    Side data:\n      displaymatrix: rotation of -90.00 degrees\nStream mapping:\n  Stream #0:0 -> #0:0 (h264 (native) -> rawvideo (native))\nOutput #0, image2pipe, to '/tmp/tmp_file_tensorflow_2_q9AqGY.raw':\n  Metadata:\n    major_brand     : qt  \n    minor_version   : 512\n    compatible_brands: qt  \n    encoder         : Lavf57.83.100\n    Stream #0:0(eng): Video: rawvideo (RGB[24] / 0x18424752), rgb24, 1280x720, q=2-31, 1325778 kb/s, 59.94 fps, 59.94 tbn, 59.94 tbc (default)\n    Metadata:\n      encoder         : Lavc57.107.100 rawvideo\n      handler_name    : DataHandler\n    Side data:\n      displaymatrix: rotation of -0.00 degrees\nMore than 1000 frames duplicated 5370300kB time=00:00:33.18 bitrate=1325778.2kbits/s dup=992 drop=5 speed=6.61x    \nframe= 2401 fps=352 q=-0.0 Lsize= 6482700kB time=00:00:40.05 bitrate=1325778.2kbits/s dup=1198 drop=5 speed=5.88x    \nvideo:6482700kB audio:0kB subtitle:0kB other streams:0kB global headers:0kB muxing overhead: 0.000000%", "body": "Here is the err file:\r\n```shell\r\nInput #0, mov,mp4,m4a,3gp,3g2,mj2, from '/tmp/tmp_file_tensorflow_1_RNEIEt':\r\n  Metadata:\r\n    major_brand     : qt  \r\n    minor_version   : 512\r\n    compatible_brands: qt  \r\n    encoder         : Lavf57.71.100\r\n  Duration: 00:00:40.06, start: 0.000000, bitrate: 4036 kb/s\r\n    Stream #0:0(eng): Video: h264 (High) (avc1 / 0x31637661), yuv420p(tv, smpte170m/bt709/bt709), 720x1280, 4034 kb/s, 30.16 fps, 59.94 tbr, 19200 tbn, 38400 tbc (default)\r\n    Metadata:\r\n      rotate          : 90\r\n      handler_name    : DataHandler\r\n      encoder         : H.264\r\n    Side data:\r\n      displaymatrix: rotation of -90.00 degrees\r\nStream mapping:\r\n  Stream #0:0 -> #0:0 (h264 (native) -> rawvideo (native))\r\nOutput #0, image2pipe, to '/tmp/tmp_file_tensorflow_2_q9AqGY.raw':\r\n  Metadata:\r\n    major_brand     : qt  \r\n    minor_version   : 512\r\n    compatible_brands: qt  \r\n    encoder         : Lavf57.83.100\r\n    Stream #0:0(eng): Video: rawvideo (RGB[24] / 0x18424752), rgb24, 1280x720, q=2-31, 1325778 kb/s, 59.94 fps, 59.94 tbn, 59.94 tbc (default)\r\n    Metadata:\r\n      encoder         : Lavc57.107.100 rawvideo\r\n      handler_name    : DataHandler\r\n    Side data:\r\n      displaymatrix: rotation of -0.00 degrees\r\nMore than 1000 frames duplicated 5370300kB time=00:00:33.18 bitrate=1325778.2kbits/s dup=992 drop=5 speed=6.61x    \r\nframe= 2401 fps=352 q=-0.0 Lsize= 6482700kB time=00:00:40.05 bitrate=1325778.2kbits/s dup=1198 drop=5 speed=5.88x    \r\nvideo:6482700kB audio:0kB subtitle:0kB other streams:0kB global headers:0kB muxing overhead: 0.000000%\r\n```"}